<?xml version="1.0" standalone="no"?>
<!DOCTYPE svg PUBLIC "-//W3C//DTD SVG 20010904//EN"
 "http://www.w3.org/TR/2001/REC-SVG-20010904/DTD/svg10.dtd">
<svg version="1.0" xmlns="http://www.w3.org/2000/svg"
 width="165.000000pt" height="165.000000pt" viewBox="0 0 165.000000 165.000000"
 preserveAspectRatio="xMidYMid meet">
<metadata>
Created by potrace 1.11, written by Peter Selinger 2001-2013
</metadata>
<g transform="translate(0.000000,165.000000) scale(0.100000,-0.100000)"
fill="#000000" stroke="none">
<path d="M655 1624 c-395 -88 -663 -438 -642 -838 7 -134 24 -203 82 -321 79
-163 206 -290 370 -370 136 -66 196 -79 360 -79 164 0 224 13 360 79 164 80
291 207 370 370 66 136 79 196 79 360 0 164 -13 224 -79 360 -50 104 -127 201
-217 275 -71 58 -213 131 -303 155 -87 24 -292 29 -380 9z m113 -35 c-34 -25
-136 -152 -162 -200 -12 -24 -32 -40 -62 -53 -26 -11 -62 -38 -87 -67 l-42
-48 -85 34 c-47 19 -90 35 -97 35 -51 1 41 107 161 187 103 69 275 129 381
132 17 0 17 -2 -7 -20z m192 7 c163 -29 313 -110 430 -231 l64 -68 -54 -17
c-30 -9 -78 -29 -106 -43 l-52 -26 -28 41 c-30 42 -105 98 -134 98 -8 0 -31
25 -49 57 -19 31 -65 89 -104 130 -38 40 -63 73 -56 73 8 -1 48 -7 89 -14z
m-52 -70 c82 -87 143 -185 188 -305 30 -79 31 -87 17 -103 -9 -10 -19 -18 -23
-18 -4 0 -27 42 -53 93 -47 94 -130 204 -186 245 l-31 22 -58 -58 c-72 -72
-112 -130 -159 -228 l-36 -75 -23 22 -23 21 23 62 c52 137 124 254 212 341 30
30 61 55 68 55 7 0 45 -33 84 -74z m-20 -160 c57 -60 113 -143 149 -223 29
-62 25 -78 -31 -132 l-31 -30 0 74 c0 59 -4 79 -21 101 -33 45 -50 51 -85 32
-38 -22 -50 -22 -88 -1 -30 18 -30 18 -61 -12 -35 -34 -54 -93 -47 -149 l6
-39 -46 45 -46 46 17 44 c42 106 184 298 221 298 6 0 35 -24 63 -54z m303
-121 l30 -40 -33 -27 c-18 -15 -35 -28 -38 -28 -3 0 -18 37 -35 83 -16 45 -32
86 -34 91 -10 24 84 -44 110 -79z m-654 -2 c-18 -43 -32 -80 -34 -82 -3 -6
-63 40 -63 49 0 15 98 110 113 110 11 0 8 -17 -16 -77z m-201 -13 c51 -22 137
-78 186 -122 l37 -33 -21 -75 c-19 -64 -22 -102 -22 -260 -1 -163 2 -195 22
-270 30 -112 108 -270 172 -347 28 -35 48 -63 45 -63 -3 0 -34 13 -69 29 -249
113 -449 363 -528 659 -40 154 -34 377 15 495 l16 36 53 -15 c29 -9 72 -24 94
-34z m1156 -19 c141 -418 -149 -997 -574 -1147 l-38 -13 56 67 c67 81 145 236
176 352 20 75 23 107 22 270 0 155 -4 197 -21 257 l-20 72 46 39 c99 83 257
165 310 159 20 -2 28 -12 43 -56z m-1373 -81 c-6 -26 -9 -106 -6 -185 4 -113
10 -158 31 -230 80 -271 269 -512 491 -626 70 -35 75 -40 40 -34 -77 14 -203
66 -277 115 -248 162 -386 458 -350 745 10 79 67 273 78 263 1 -2 -2 -24 -7
-48z m706 20 c14 0 37 7 51 16 23 16 26 15 44 -1 29 -26 42 -87 34 -153 -5
-39 -23 -87 -57 -152 -27 -52 -54 -101 -60 -108 -7 -9 -20 5 -49 60 -22 39
-49 85 -61 102 -16 23 -22 49 -25 116 -4 82 -3 87 23 118 26 31 29 32 51 17
13 -8 35 -15 49 -15z m760 -137 c37 -143 28 -310 -25 -455 -78 -213 -247 -384
-460 -465 -114 -43 -141 -41 -57 5 313 173 524 565 504 936 -5 94 -4 99 9 68
8 -18 21 -59 29 -89z m-949 -17 c26 -30 78 -109 115 -176 l67 -123 -19 -54
c-52 -153 -64 -345 -30 -488 11 -44 18 -81 16 -83 -2 -2 -26 25 -55 60 -64 79
-142 236 -171 348 -31 116 -34 364 -5 488 10 45 22 82 27 82 4 0 29 -24 55
-54z m460 -28 c15 -64 19 -120 18 -243 0 -192 -18 -276 -94 -430 -44 -89 -136
-223 -146 -212 -3 2 3 33 13 68 12 45 17 102 17 189 0 126 -10 194 -45 301
l-19 59 36 72 c50 99 173 274 195 277 3 1 15 -36 25 -81z m-243 -381 c28 -105
39 -238 27 -331 -11 -86 -35 -184 -50 -200 -19 -20 -60 173 -60 284 0 103 40
310 59 310 4 0 14 -28 24 -63z"/>
</g>
</svg>
