<?xml version="1.0" encoding="utf-8"?>
<!-- Generator: Adobe Illustrator 15.0.0, SVG Export Plug-In  -->
<!DOCTYPE svg PUBLIC "-//W3C//DTD SVG 1.1//EN" "http://www.w3.org/Graphics/SVG/1.1/DTD/svg11.dtd" [
	<!ENTITY ns_flows "http://ns.adobe.com/Flows/1.0/">
]>
<svg version="1.1"
	 xmlns="http://www.w3.org/2000/svg" xmlns:xlink="http://www.w3.org/1999/xlink" xmlns:a="http://ns.adobe.com/AdobeSVGViewerExtensions/3.0/"
	 x="0px" y="0px" width="165px" height="165px" viewBox="-1 -1 165 165" overflow="visible" enable-background="new -1 -1 165 165"
	 xml:space="preserve">
<defs>
</defs>
<circle fill="none" stroke="#E93854" stroke-width="3" stroke-miterlimit="10" cx="81.5" cy="81.5" r="80"/>
<path fill="none" stroke="#E93854" stroke-width="2" stroke-miterlimit="10" d="M112.298,90.539
	c0-30.329-12.393-56.79-30.798-70.961C63.095,33.75,50.702,60.21,50.702,90.539c0,30.328,12.393,56.789,30.798,70.961
	C99.905,147.328,112.298,120.867,112.298,90.539z"/>
<path fill="none" stroke="#E93854" stroke-width="2" stroke-miterlimit="10" d="M112.298,90.539
	c0-30.328-12.393-56.789-30.798-70.961C63.095,33.75,50.702,60.211,50.702,90.539c0,30.328,12.393,56.789,30.798,70.961
	C99.905,147.328,112.298,120.867,112.298,90.539z"/>
<path fill="none" stroke="#E93854" stroke-width="2" stroke-miterlimit="10" d="M141.228,112.419
	c13.914-26.949,15.042-56.146,5.188-77.183c-22.856,4.149-46.008,21.977-59.919,48.925c-13.914,26.949-15.042,56.146-5.188,77.183
	C104.165,157.194,127.316,139.367,141.228,112.419z"/>
<path fill="none" stroke="#E93854" stroke-width="2" stroke-miterlimit="10" d="M22.337,112.075
	C8.423,85.126,7.295,55.929,17.148,34.892c22.856,4.149,46.008,21.977,59.919,48.925C90.98,110.767,92.109,139.963,82.256,161
	C59.399,156.851,36.248,139.023,22.337,112.075z"/>
<path fill="none" stroke="#E93854" stroke-width="2" stroke-miterlimit="10" d="M81.547,20.078
	c11.081,8.532,19.977,21.522,25.307,37.125c2.032-1.957,4.119-3.804,6.257-5.523C107.455,30.611,96.073,13.013,81.381,2
	C66.889,12.863,55.622,30.133,49.889,50.82c2.247,1.774,4.439,3.688,6.573,5.722C61.816,41.232,70.622,28.49,81.547,20.078z"/>
<path fill="none" stroke="#E93854" stroke-width="2" stroke-miterlimit="10" d="M41.166,44.098c0,0,6.424-12.896,17.445-14.496"/>
<path fill="none" stroke="#E93854" stroke-width="2" stroke-miterlimit="10" d="M122.585,44.098c0,0-6.424-12.896-17.445-14.496"/>
<path fill="none" stroke="#E93854" stroke-width="2" stroke-miterlimit="10" d="M87.762,44.837c0,0-3.153,3.562-6.152,2.991
	c-0.04-0.008-0.189-0.008-0.229,0c-3,0.572-6.154-2.991-6.154-2.991c-13.096,4.658-5.831,26.311-5.831,26.311
	c3.658,5.826,11.984,22.387,11.984,22.387s0.044-0.539,0.114-1.467c0.07,0.929,0.114,1.468,0.114,1.468S90.341,76.826,94,71
	C94,71,100.887,46.762,87.762,44.837z"/>
</svg>
